# xmcd
#
# Track frame offsets: 
#        150
#        21824
#        41778
#        61529
#        82617
#        108678
#        128755
#        153130
#        171358
#        185640
#        208708
#        226350
#        245077
#        260420
#        275671
#
# Disc length: 3955 seconds
#
# Revision: 0
# Processed by: cddbd v1.5.2PL0 Copyright (c) Steve Scherf et al.
# Submitted via: ExactAudioCopyFreeDBPlugin 1.0
#
DISCID=cb0f710f
DTITLE=Various Artist - Where Blues Meets Rock IX
DYEAR=2014
DGENRE=Blues
TTITLE0=Beth Hart - Baddest Blues
TTITLE1=Robben Ford - Fair Child
TTITLE2=Walter Trout - Cherry Red Wine
TTITLE3=Robert Cray - A Memo
TTITLE4=Jonny Lang - What You're Looking For
TTITLE5=No Sinner - Boo Hoo Hoo
TTITLE6=Gov’t Mule - World Boss
TTITLE7=Eric Johnson - Austin
TTITLE8=Omar Dykes - Spoonful
TTITLE9=The Rides - Roadhouse
TTITLE10=Popa Chubby - I Need A Lil' Mojo
TTITLE11=Leslie West - Fade Into You
TTITLE12=Bernie Marsden - Linin' Track
TTITLE13=Philip Sayce - Sailin' Shoes
TTITLE14=Matt Schofield - Getaway
EXTD=
EXTT0=
EXTT1=
EXTT2=
EXTT3=
EXTT4=
EXTT5=
EXTT6=
EXTT7=
EXTT8=
EXTT9=
EXTT10=
EXTT11=
EXTT12=
EXTT13=
EXTT14=
PLAYORDER=
